<?xml version="1.0" encoding="UTF-8" standalone="no"?>
<!DOCTYPE svg PUBLIC "-//W3C//DTD SVG 1.1//EN"
 "http://www.w3.org/Graphics/SVG/1.1/DTD/svg11.dtd">
<!-- Generated by graphviz version 2.36.0 (20140111.2315)
 -->
<!-- Title: controllers_diagram Pages: 1 -->
<svg width="443pt" height="358pt"
 viewBox="0.00 0.00 443.00 358.00" xmlns="http://www.w3.org/2000/svg" xmlns:xlink="http://www.w3.org/1999/xlink">
<g id="graph0" class="graph" transform="scale(1 1) rotate(0) translate(4 354)">
<title>controllers_diagram</title>
<polygon fill="none" stroke="none" points="-4,4 -4,-354 439,-354 439,4 -4,4"/>
<!-- _diagram_info -->
<g id="node1" class="node"><title>_diagram_info</title>
<text text-anchor="start" x="229" y="-335.6" font-family="Times,serif" font-size="13.00">Controllers diagram</text>
<text text-anchor="start" x="229" y="-321.6" font-family="Times,serif" font-size="13.00">Date: Nov 18 2016 &#45; 22:05</text>
<text text-anchor="start" x="229" y="-307.6" font-family="Times,serif" font-size="13.00">Migration version: 20161119035515</text>
<text text-anchor="start" x="229" y="-293.6" font-family="Times,serif" font-size="13.00">Generated by RailRoady 1.5.2</text>
<text text-anchor="start" x="229" y="-279.6" font-family="Times,serif" font-size="13.00">http://railroady.prestonlee.com</text>
</g>
<!-- BusRoutesController -->
<g id="node2" class="node"><title>BusRoutesController</title>
<path fill="none" stroke="black" d="M12,-0.5C12,-0.5 119,-0.5 119,-0.5 125,-0.5 131,-6.5 131,-12.5 131,-12.5 131,-201.5 131,-201.5 131,-207.5 125,-213.5 119,-213.5 119,-213.5 12,-213.5 12,-213.5 6,-213.5 0,-207.5 0,-201.5 0,-201.5 0,-12.5 0,-12.5 0,-6.5 6,-0.5 12,-0.5"/>
<text text-anchor="middle" x="65.5" y="-198.3" font-family="Times,serif" font-size="14.00">BusRoutesController</text>
<polyline fill="none" stroke="black" points="0,-190.5 131,-190.5 "/>
<text text-anchor="start" x="8" y="-175.3" font-family="Times,serif" font-size="14.00">create</text>
<text text-anchor="start" x="8" y="-160.3" font-family="Times,serif" font-size="14.00">destroy</text>
<text text-anchor="start" x="8" y="-145.3" font-family="Times,serif" font-size="14.00">edit</text>
<text text-anchor="start" x="8" y="-130.3" font-family="Times,serif" font-size="14.00">index</text>
<text text-anchor="start" x="8" y="-115.3" font-family="Times,serif" font-size="14.00">new</text>
<text text-anchor="start" x="8" y="-100.3" font-family="Times,serif" font-size="14.00">show</text>
<text text-anchor="start" x="8" y="-85.3" font-family="Times,serif" font-size="14.00">update</text>
<polyline fill="none" stroke="black" points="0,-77.5 131,-77.5 "/>
<polyline fill="none" stroke="black" points="0,-53.5 131,-53.5 "/>
<text text-anchor="start" x="8" y="-38.3" font-family="Times,serif" font-size="14.00">_layout</text>
<text text-anchor="start" x="8" y="-23.3" font-family="Times,serif" font-size="14.00">bus_route_params</text>
<text text-anchor="start" x="8" y="-8.3" font-family="Times,serif" font-size="14.00">set_bus_route</text>
</g>
<!-- BusStopsController -->
<g id="node3" class="node"><title>BusStopsController</title>
<path fill="none" stroke="black" d="M182,-17.5C182,-17.5 281,-17.5 281,-17.5 287,-17.5 293,-23.5 293,-29.5 293,-29.5 293,-218.5 293,-218.5 293,-224.5 287,-230.5 281,-230.5 281,-230.5 182,-230.5 182,-230.5 176,-230.5 170,-224.5 170,-218.5 170,-218.5 170,-29.5 170,-29.5 170,-23.5 176,-17.5 182,-17.5"/>
<text text-anchor="middle" x="231.5" y="-215.3" font-family="Times,serif" font-size="14.00">BusStopsController</text>
<polyline fill="none" stroke="black" points="170,-207.5 293,-207.5 "/>
<text text-anchor="start" x="178" y="-192.3" font-family="Times,serif" font-size="14.00">create</text>
<text text-anchor="start" x="178" y="-177.3" font-family="Times,serif" font-size="14.00">destroy</text>
<text text-anchor="start" x="178" y="-162.3" font-family="Times,serif" font-size="14.00">edit</text>
<text text-anchor="start" x="178" y="-147.3" font-family="Times,serif" font-size="14.00">index</text>
<text text-anchor="start" x="178" y="-132.3" font-family="Times,serif" font-size="14.00">new</text>
<text text-anchor="start" x="178" y="-117.3" font-family="Times,serif" font-size="14.00">show</text>
<text text-anchor="start" x="178" y="-102.3" font-family="Times,serif" font-size="14.00">update</text>
<polyline fill="none" stroke="black" points="170,-94.5 293,-94.5 "/>
<polyline fill="none" stroke="black" points="170,-70.5 293,-70.5 "/>
<text text-anchor="start" x="178" y="-55.3" font-family="Times,serif" font-size="14.00">_layout</text>
<text text-anchor="start" x="178" y="-40.3" font-family="Times,serif" font-size="14.00">bus_stop_params</text>
<text text-anchor="start" x="178" y="-25.3" font-family="Times,serif" font-size="14.00">set_bus_stop</text>
</g>
<!-- ApplicationController -->
<g id="node4" class="node"><title>ApplicationController</title>
<path fill="none" stroke="black" d="M12,-255.5C12,-255.5 124,-255.5 124,-255.5 130,-255.5 136,-261.5 136,-267.5 136,-267.5 136,-337.5 136,-337.5 136,-343.5 130,-349.5 124,-349.5 124,-349.5 12,-349.5 12,-349.5 6,-349.5 0,-343.5 0,-337.5 0,-337.5 0,-267.5 0,-267.5 0,-261.5 6,-255.5 12,-255.5"/>
<text text-anchor="middle" x="68" y="-334.3" font-family="Times,serif" font-size="14.00">ApplicationController</text>
<polyline fill="none" stroke="black" points="0,-326.5 136,-326.5 "/>
<polyline fill="none" stroke="black" points="0,-302.5 136,-302.5 "/>
<polyline fill="none" stroke="black" points="0,-278.5 136,-278.5 "/>
<text text-anchor="start" x="8" y="-263.3" font-family="Times,serif" font-size="14.00">_layout</text>
</g>
</g>
</svg>
