<?xml version="1.0" encoding="UTF-8" standalone="no"?>
<!DOCTYPE svg PUBLIC "-//W3C//DTD SVG 1.1//EN"
 "http://www.w3.org/Graphics/SVG/1.1/DTD/svg11.dtd">
<!-- Generated by graphviz version 2.36.0 (20140111.2315)
 -->
<!-- Title: models_diagram Pages: 1 -->
<svg width="1601pt" height="266pt"
 viewBox="0.00 0.00 1601.00 266.00" xmlns="http://www.w3.org/2000/svg" xmlns:xlink="http://www.w3.org/1999/xlink">
<g id="graph0" class="graph" transform="scale(1 1) rotate(0) translate(4 262)">
<title>models_diagram</title>
<polygon fill="none" stroke="none" points="-4,4 -4,-262 1597,-262 1597,4 -4,4"/>
<!-- _diagram_info -->
<g id="node1" class="node"><title>_diagram_info</title>
<text text-anchor="start" x="7" y="-153.6" font-family="Times,serif" font-size="13.00">Models diagram</text>
<text text-anchor="start" x="7" y="-139.6" font-family="Times,serif" font-size="13.00">Date: Nov 18 2016 &#45; 22:05</text>
<text text-anchor="start" x="7" y="-125.6" font-family="Times,serif" font-size="13.00">Migration version: 20161119035515</text>
<text text-anchor="start" x="7" y="-111.6" font-family="Times,serif" font-size="13.00">Generated by RailRoady 1.5.2</text>
<text text-anchor="start" x="7" y="-97.6" font-family="Times,serif" font-size="13.00">http://railroady.prestonlee.com</text>
</g>
<!-- User -->
<g id="node2" class="node"><title>User</title>
<path fill="none" stroke="black" d="M243.5,-1C243.5,-1 532.5,-1 532.5,-1 538.5,-1 544.5,-7 544.5,-13 544.5,-13 544.5,-245 544.5,-245 544.5,-251 538.5,-257 532.5,-257 532.5,-257 243.5,-257 243.5,-257 237.5,-257 231.5,-251 231.5,-245 231.5,-245 231.5,-13 231.5,-13 231.5,-7 237.5,-1 243.5,-1"/>
<text text-anchor="middle" x="388" y="-241.8" font-family="Times,serif" font-size="14.00">User</text>
<polyline fill="none" stroke="black" points="231.5,-234 544.5,-234 "/>
<text text-anchor="start" x="239.5" y="-218.8" font-family="Times,serif" font-size="14.00">id :integer</text>
<text text-anchor="start" x="239.5" y="-203.8" font-family="Times,serif" font-size="14.00">email :character varying</text>
<text text-anchor="start" x="239.5" y="-188.8" font-family="Times,serif" font-size="14.00">encrypted_password :character varying</text>
<text text-anchor="start" x="239.5" y="-173.8" font-family="Times,serif" font-size="14.00">reset_password_token :character varying</text>
<text text-anchor="start" x="239.5" y="-158.8" font-family="Times,serif" font-size="14.00">reset_password_sent_at :timestamp without time zone</text>
<text text-anchor="start" x="239.5" y="-143.8" font-family="Times,serif" font-size="14.00">remember_created_at :timestamp without time zone</text>
<text text-anchor="start" x="239.5" y="-128.8" font-family="Times,serif" font-size="14.00">sign_in_count :integer</text>
<text text-anchor="start" x="239.5" y="-113.8" font-family="Times,serif" font-size="14.00">current_sign_in_at :timestamp without time zone</text>
<text text-anchor="start" x="239.5" y="-98.8" font-family="Times,serif" font-size="14.00">last_sign_in_at :timestamp without time zone</text>
<text text-anchor="start" x="239.5" y="-83.8" font-family="Times,serif" font-size="14.00">current_sign_in_ip :inet</text>
<text text-anchor="start" x="239.5" y="-68.8" font-family="Times,serif" font-size="14.00">last_sign_in_ip :inet</text>
<text text-anchor="start" x="239.5" y="-53.8" font-family="Times,serif" font-size="14.00">created_at :timestamp without time zone</text>
<text text-anchor="start" x="239.5" y="-38.8" font-family="Times,serif" font-size="14.00">updated_at :timestamp without time zone</text>
<text text-anchor="start" x="239.5" y="-23.8" font-family="Times,serif" font-size="14.00">username :character varying</text>
<text text-anchor="start" x="239.5" y="-8.8" font-family="Times,serif" font-size="14.00">role_id :integer</text>
</g>
<!-- BusRoute -->
<g id="node3" class="node"><title>BusRoute</title>
<path fill="none" stroke="black" d="M575,-76C575,-76 795,-76 795,-76 801,-76 807,-82 807,-88 807,-88 807,-170 807,-170 807,-176 801,-182 795,-182 795,-182 575,-182 575,-182 569,-182 563,-176 563,-170 563,-170 563,-88 563,-88 563,-82 569,-76 575,-76"/>
<text text-anchor="middle" x="685" y="-166.8" font-family="Times,serif" font-size="14.00">BusRoute</text>
<polyline fill="none" stroke="black" points="563,-159 807,-159 "/>
<text text-anchor="start" x="571" y="-143.8" font-family="Times,serif" font-size="14.00">id :integer</text>
<text text-anchor="start" x="571" y="-128.8" font-family="Times,serif" font-size="14.00">name :character varying</text>
<text text-anchor="start" x="571" y="-113.8" font-family="Times,serif" font-size="14.00">created_at :timestamp without time zone</text>
<text text-anchor="start" x="571" y="-98.8" font-family="Times,serif" font-size="14.00">updated_at :timestamp without time zone</text>
<text text-anchor="start" x="571" y="-83.8" font-family="Times,serif" font-size="14.00">number :integer</text>
</g>
<!-- Matching -->
<g id="node4" class="node"><title>Matching</title>
<path fill="none" stroke="black" d="M837,-76C837,-76 1057,-76 1057,-76 1063,-76 1069,-82 1069,-88 1069,-88 1069,-170 1069,-170 1069,-176 1063,-182 1057,-182 1057,-182 837,-182 837,-182 831,-182 825,-176 825,-170 825,-170 825,-88 825,-88 825,-82 831,-76 837,-76"/>
<text text-anchor="middle" x="947" y="-166.8" font-family="Times,serif" font-size="14.00">Matching</text>
<polyline fill="none" stroke="black" points="825,-159 1069,-159 "/>
<text text-anchor="start" x="833" y="-143.8" font-family="Times,serif" font-size="14.00">id :integer</text>
<text text-anchor="start" x="833" y="-128.8" font-family="Times,serif" font-size="14.00">bus_stop_id :integer</text>
<text text-anchor="start" x="833" y="-113.8" font-family="Times,serif" font-size="14.00">bus_route_id :integer</text>
<text text-anchor="start" x="833" y="-98.8" font-family="Times,serif" font-size="14.00">created_at :timestamp without time zone</text>
<text text-anchor="start" x="833" y="-83.8" font-family="Times,serif" font-size="14.00">updated_at :timestamp without time zone</text>
</g>
<!-- Role -->
<g id="node5" class="node"><title>Role</title>
<path fill="none" stroke="black" d="M1099,-83.5C1099,-83.5 1319,-83.5 1319,-83.5 1325,-83.5 1331,-89.5 1331,-95.5 1331,-95.5 1331,-162.5 1331,-162.5 1331,-168.5 1325,-174.5 1319,-174.5 1319,-174.5 1099,-174.5 1099,-174.5 1093,-174.5 1087,-168.5 1087,-162.5 1087,-162.5 1087,-95.5 1087,-95.5 1087,-89.5 1093,-83.5 1099,-83.5"/>
<text text-anchor="middle" x="1209" y="-159.3" font-family="Times,serif" font-size="14.00">Role</text>
<polyline fill="none" stroke="black" points="1087,-151.5 1331,-151.5 "/>
<text text-anchor="start" x="1095" y="-136.3" font-family="Times,serif" font-size="14.00">id :integer</text>
<text text-anchor="start" x="1095" y="-121.3" font-family="Times,serif" font-size="14.00">name :character varying</text>
<text text-anchor="start" x="1095" y="-106.3" font-family="Times,serif" font-size="14.00">created_at :timestamp without time zone</text>
<text text-anchor="start" x="1095" y="-91.3" font-family="Times,serif" font-size="14.00">updated_at :timestamp without time zone</text>
</g>
<!-- BusStop -->
<g id="node6" class="node"><title>BusStop</title>
<path fill="none" stroke="black" d="M1361,-68.5C1361,-68.5 1581,-68.5 1581,-68.5 1587,-68.5 1593,-74.5 1593,-80.5 1593,-80.5 1593,-177.5 1593,-177.5 1593,-183.5 1587,-189.5 1581,-189.5 1581,-189.5 1361,-189.5 1361,-189.5 1355,-189.5 1349,-183.5 1349,-177.5 1349,-177.5 1349,-80.5 1349,-80.5 1349,-74.5 1355,-68.5 1361,-68.5"/>
<text text-anchor="middle" x="1471" y="-174.3" font-family="Times,serif" font-size="14.00">BusStop</text>
<polyline fill="none" stroke="black" points="1349,-166.5 1593,-166.5 "/>
<text text-anchor="start" x="1357" y="-151.3" font-family="Times,serif" font-size="14.00">id :integer</text>
<text text-anchor="start" x="1357" y="-136.3" font-family="Times,serif" font-size="14.00">name :character varying</text>
<text text-anchor="start" x="1357" y="-121.3" font-family="Times,serif" font-size="14.00">created_at :timestamp without time zone</text>
<text text-anchor="start" x="1357" y="-106.3" font-family="Times,serif" font-size="14.00">updated_at :timestamp without time zone</text>
<text text-anchor="start" x="1357" y="-91.3" font-family="Times,serif" font-size="14.00">latitude :numeric</text>
<text text-anchor="start" x="1357" y="-76.3" font-family="Times,serif" font-size="14.00">longitude :numeric</text>
</g>
</g>
</svg>
